<svg width="200" height="150" viewBox="0 0 200 150" fill="none" xmlns="http://www.w3.org/2000/svg">
<path d="M130.491 93.7266C130.491 107.926 112.759 107.598 110.884 107.598H74.7723V80.2467H110.884C129.884 80.2467 130.491 90.9275 130.491 93.7266ZM108.103 69.2411C108.402 69.2411 125.263 69.5759 125.263 57.0837C125.263 51.8873 123.696 45.0737 108.103 45.0737H74.7723V69.2411H108.103ZM200 25.0011V124.999C199.974 131.624 196.454 137.971 190.208 142.656C183.962 147.34 175.498 149.981 166.665 150H33.3348C24.5018 149.981 16.038 147.34 9.79216 142.656C3.54628 137.971 0.0259102 131.624 0 124.999L0 25.0011C0.0259102 18.3764 3.54628 12.0285 9.79216 7.34412C16.038 2.65971 24.5018 0.0194327 33.3348 0H166.665C175.498 0.0194327 183.962 2.65971 190.208 7.34412C196.454 12.0285 199.974 18.3764 200 25.0011ZM150.915 95.712C150.915 88.49 147.946 76.1953 129.018 73.1618V72.9174C139.246 69.6429 145.688 63.4587 145.688 54.2879C145.688 51.9442 146.58 32.5982 111.045 32.5982H54.3482V120.097C111.594 120.097 116.79 120.66 127.384 118.185C133.728 116.705 150.915 112.165 150.915 95.712Z" fill="#C15FEE"/>
</svg>
