<svg width="200" height="150" viewBox="0 0 200 150" fill="none" xmlns="http://www.w3.org/2000/svg">
<rect width="200" height="150" fill="#E5E5E5"/>
<rect width="200" height="150" fill="#F4AE77"/>
<path d="M31.2871 78.8789C30.9707 81.5859 29.9688 83.6777 28.2812 85.1543C26.6055 86.6191 24.373 87.3516 21.584 87.3516C18.5605 87.3516 16.1348 86.2676 14.3066 84.0996C12.4902 81.9316 11.582 79.0312 11.582 75.3984V72.9375C11.582 70.5586 12.0039 68.4668 12.8477 66.6621C13.7031 64.8574 14.9102 63.4746 16.4688 62.5137C18.0273 61.541 19.832 61.0547 21.8828 61.0547C24.6016 61.0547 26.7812 61.8164 28.4219 63.3398C30.0625 64.8516 31.0176 66.9492 31.2871 69.6328H27.8945C27.6016 67.5938 26.9629 66.1172 25.9785 65.2031C25.0059 64.2891 23.6406 63.832 21.8828 63.832C19.7266 63.832 18.0332 64.6289 16.8027 66.2227C15.584 67.8164 14.9746 70.084 14.9746 73.0254V75.5039C14.9746 78.2812 15.5547 80.4902 16.7148 82.1309C17.875 83.7715 19.498 84.5918 21.584 84.5918C23.459 84.5918 24.8945 84.1699 25.8906 83.3262C26.8984 82.4707 27.5664 80.9883 27.8945 78.8789H31.2871ZM38.9336 87H35.6816V60H38.9336V87ZM47.6875 87H44.4355V67.9805H47.6875V87ZM44.1719 62.9355C44.1719 62.4082 44.3301 61.9629 44.6465 61.5996C44.9746 61.2363 45.4551 61.0547 46.0879 61.0547C46.7207 61.0547 47.2012 61.2363 47.5293 61.5996C47.8574 61.9629 48.0215 62.4082 48.0215 62.9355C48.0215 63.4629 47.8574 63.9023 47.5293 64.2539C47.2012 64.6055 46.7207 64.7812 46.0879 64.7812C45.4551 64.7812 44.9746 64.6055 44.6465 64.2539C44.3301 63.9023 44.1719 63.4629 44.1719 62.9355ZM60.5371 84.6973C61.6973 84.6973 62.7109 84.3457 63.5781 83.6426C64.4453 82.9395 64.9258 82.0605 65.0195 81.0059H68.0957C68.0371 82.0957 67.6621 83.1328 66.9707 84.1172C66.2793 85.1016 65.3535 85.8867 64.1934 86.4727C63.0449 87.0586 61.8262 87.3516 60.5371 87.3516C57.9473 87.3516 55.8848 86.4902 54.3496 84.7676C52.8262 83.0332 52.0645 80.666 52.0645 77.666V77.1211C52.0645 75.2695 52.4043 73.623 53.084 72.1816C53.7637 70.7402 54.7363 69.6211 56.002 68.8242C57.2793 68.0273 58.7852 67.6289 60.5195 67.6289C62.6523 67.6289 64.4219 68.2676 65.8281 69.5449C67.2461 70.8223 68.002 72.4805 68.0957 74.5195H65.0195C64.9258 73.2891 64.457 72.2812 63.6133 71.4961C62.7812 70.6992 61.75 70.3008 60.5195 70.3008C58.8672 70.3008 57.584 70.8984 56.6699 72.0938C55.7676 73.2773 55.3164 74.9941 55.3164 77.2441V77.8594C55.3164 80.0508 55.7676 81.7383 56.6699 82.9219C57.5723 84.1055 58.8613 84.6973 60.5371 84.6973ZM77.0605 78.1934L75.0215 80.3203V87H71.7695V60H75.0215V76.3301L76.7617 74.2383L82.6855 67.9805H86.6406L79.2402 75.9258L87.502 87H83.6875L77.0605 78.1934ZM106.434 87H89.6641V84.6621L98.5234 74.8184C99.8359 73.3301 100.738 72.123 101.23 71.1973C101.734 70.2598 101.986 69.293 101.986 68.2969C101.986 66.9609 101.582 65.8652 100.773 65.0098C99.9648 64.1543 98.8867 63.7266 97.5391 63.7266C95.9219 63.7266 94.6621 64.1895 93.7598 65.1152C92.8691 66.0293 92.4238 67.3066 92.4238 68.9473H89.1719C89.1719 66.5918 89.9277 64.6875 91.4395 63.2344C92.9629 61.7812 94.9961 61.0547 97.5391 61.0547C99.918 61.0547 101.799 61.6816 103.182 62.9355C104.564 64.1777 105.256 65.8359 105.256 67.9102C105.256 70.4297 103.65 73.4297 100.439 76.9102L93.584 84.3457H106.434V87ZM129.549 78.8789C129.232 81.5859 128.23 83.6777 126.543 85.1543C124.867 86.6191 122.635 87.3516 119.846 87.3516C116.822 87.3516 114.396 86.2676 112.568 84.0996C110.752 81.9316 109.844 79.0312 109.844 75.3984V72.9375C109.844 70.5586 110.266 68.4668 111.109 66.6621C111.965 64.8574 113.172 63.4746 114.73 62.5137C116.289 61.541 118.094 61.0547 120.145 61.0547C122.863 61.0547 125.043 61.8164 126.684 63.3398C128.324 64.8516 129.279 66.9492 129.549 69.6328H126.156C125.863 67.5938 125.225 66.1172 124.24 65.2031C123.268 64.2891 121.902 63.832 120.145 63.832C117.988 63.832 116.295 64.6289 115.064 66.2227C113.846 67.8164 113.236 70.084 113.236 73.0254V75.5039C113.236 78.2812 113.816 80.4902 114.977 82.1309C116.137 83.7715 117.76 84.5918 119.846 84.5918C121.721 84.5918 123.156 84.1699 124.152 83.3262C125.16 82.4707 125.828 80.9883 126.156 78.8789H129.549ZM132.801 77.3145C132.801 75.4512 133.164 73.7754 133.891 72.2871C134.629 70.7988 135.648 69.6504 136.949 68.8418C138.262 68.0332 139.756 67.6289 141.432 67.6289C144.021 67.6289 146.113 68.5254 147.707 70.3184C149.312 72.1113 150.115 74.4961 150.115 77.4727V77.7012C150.115 79.5527 149.758 81.2168 149.043 82.6934C148.34 84.1582 147.326 85.3008 146.002 86.1211C144.689 86.9414 143.178 87.3516 141.467 87.3516C138.889 87.3516 136.797 86.4551 135.191 84.6621C133.598 82.8691 132.801 80.4961 132.801 77.543V77.3145ZM136.07 77.7012C136.07 79.8105 136.557 81.5039 137.529 82.7812C138.514 84.0586 139.826 84.6973 141.467 84.6973C143.119 84.6973 144.432 84.0527 145.404 82.7637C146.377 81.4629 146.863 79.6465 146.863 77.3145C146.863 75.2285 146.365 73.541 145.369 72.252C144.385 70.9512 143.072 70.3008 141.432 70.3008C139.826 70.3008 138.531 70.9395 137.547 72.2168C136.562 73.4941 136.07 75.3223 136.07 77.7012ZM153.332 77.3145C153.332 75.4512 153.695 73.7754 154.422 72.2871C155.16 70.7988 156.18 69.6504 157.48 68.8418C158.793 68.0332 160.287 67.6289 161.963 67.6289C164.553 67.6289 166.645 68.5254 168.238 70.3184C169.844 72.1113 170.646 74.4961 170.646 77.4727V77.7012C170.646 79.5527 170.289 81.2168 169.574 82.6934C168.871 84.1582 167.857 85.3008 166.533 86.1211C165.221 86.9414 163.709 87.3516 161.998 87.3516C159.42 87.3516 157.328 86.4551 155.723 84.6621C154.129 82.8691 153.332 80.4961 153.332 77.543V77.3145ZM156.602 77.7012C156.602 79.8105 157.088 81.5039 158.061 82.7812C159.045 84.0586 160.357 84.6973 161.998 84.6973C163.65 84.6973 164.963 84.0527 165.936 82.7637C166.908 81.4629 167.395 79.6465 167.395 77.3145C167.395 75.2285 166.896 73.541 165.9 72.252C164.916 70.9512 163.604 70.3008 161.963 70.3008C160.357 70.3008 159.062 70.9395 158.078 72.2168C157.094 73.4941 156.602 75.3223 156.602 77.7012ZM180.033 78.1934L177.994 80.3203V87H174.742V60H177.994V76.3301L179.734 74.2383L185.658 67.9805H189.613L182.213 75.9258L190.475 87H186.66L180.033 78.1934Z" fill="white"/>
</svg>
