<svg width="200" height="150" viewBox="0 0 200 150" fill="none" xmlns="http://www.w3.org/2000/svg">
<path d="M171.429 0H28.5714C12.7902 0 0 9.59263 0 21.4286V128.571C0 140.407 12.7902 150 28.5714 150H171.429C187.21 150 200 140.407 200 128.571V21.4286C200 9.59263 187.21 0 171.429 0ZM57.1429 117.857C49.2545 117.857 42.8571 113.059 42.8571 107.143C42.8571 101.227 49.2545 96.4286 57.1429 96.4286C65.0312 96.4286 71.4286 101.227 71.4286 107.143C71.4286 113.059 65.0312 117.857 57.1429 117.857ZM57.1429 85.7143C49.2545 85.7143 42.8571 80.9163 42.8571 75C42.8571 69.0837 49.2545 64.2857 57.1429 64.2857C65.0312 64.2857 71.4286 69.0837 71.4286 75C71.4286 80.9163 65.0312 85.7143 57.1429 85.7143ZM57.1429 53.5714C49.2545 53.5714 42.8571 48.7734 42.8571 42.8571C42.8571 36.9408 49.2545 32.1429 57.1429 32.1429C65.0312 32.1429 71.4286 36.9408 71.4286 42.8571C71.4286 48.7734 65.0312 53.5714 57.1429 53.5714ZM142.857 117.857C134.969 117.857 128.571 113.059 128.571 107.143C128.571 101.227 134.969 96.4286 142.857 96.4286C150.746 96.4286 157.143 101.227 157.143 107.143C157.143 113.059 150.746 117.857 142.857 117.857ZM142.857 85.7143C134.969 85.7143 128.571 80.9163 128.571 75C128.571 69.0837 134.969 64.2857 142.857 64.2857C150.746 64.2857 157.143 69.0837 157.143 75C157.143 80.9163 150.746 85.7143 142.857 85.7143ZM142.857 53.5714C134.969 53.5714 128.571 48.7734 128.571 42.8571C128.571 36.9408 134.969 32.1429 142.857 32.1429C150.746 32.1429 157.143 36.9408 157.143 42.8571C157.143 48.7734 150.746 53.5714 142.857 53.5714Z" fill="white"/>
</svg>
