<svg width="318" height="249" viewBox="0 0 318 249" fill="none" xmlns="http://www.w3.org/2000/svg">
<g clip-path="url(#clip0)">
<path d="M159 248.5C246.813 248.5 318 192.871 318 124.25C318 55.6286 246.813 0 159 0C71.1867 0 0 55.6286 0 124.25C0 192.871 71.1867 248.5 159 248.5Z" fill="url(#paint0_linear)"/>
<path d="M197.129 55.2222C200.749 55.2258 204.22 56.3513 206.78 58.3519C209.34 60.3524 210.781 63.0647 210.785 65.8939V92.0209C233.884 93.008 252.271 107.086 252.271 124.25C252.271 141.414 233.889 155.492 210.785 156.479V182.606C210.782 185.436 209.342 188.148 206.782 190.149C204.221 192.15 200.75 193.275 197.129 193.278H119.687C116.066 193.275 112.595 192.15 110.035 190.149C107.474 188.148 106.034 185.436 106.031 182.606V157.618C106.031 157.081 106.304 156.565 106.79 156.185C107.276 155.805 107.936 155.592 108.623 155.592C109.311 155.592 109.97 155.805 110.457 156.185C110.943 156.565 111.216 157.081 111.216 157.618V169.774H205.6V156.479C201.248 156.298 196.951 155.638 192.836 154.519L173.478 162.771C171.42 163.648 169.004 162.012 169.799 160.3L175.576 147.889H145.962C145.275 147.887 144.616 147.673 144.129 147.295L123.384 131.087C122.9 130.706 122.627 130.192 122.624 129.655V85.3459C122.624 84.2276 123.786 83.3199 125.217 83.3199H191.599C193.03 83.3199 194.192 84.2276 194.192 85.3459V93.6361C197.809 92.7457 201.634 92.19 205.6 92.0209V76.5656H111.212V148.023C111.212 148.289 111.144 148.553 111.014 148.798C110.884 149.044 110.693 149.268 110.452 149.456C110.211 149.644 109.926 149.793 109.611 149.895C109.297 149.997 108.959 150.049 108.619 150.049C108.278 150.049 107.941 149.997 107.627 149.895C107.312 149.793 107.026 149.644 106.786 149.456C106.545 149.268 106.354 149.044 106.224 148.798C106.093 148.553 106.026 148.289 106.026 148.023V65.8939C106.031 63.0641 107.472 60.3513 110.033 58.3507C112.594 56.35 116.066 55.2249 119.687 55.2222H197.129ZM205.6 173.826H111.212V182.606C111.214 184.361 112.107 186.044 113.695 187.285C115.283 188.526 117.437 189.224 119.683 189.226H197.125C199.371 189.224 201.524 188.526 203.112 187.285C204.7 186.044 205.593 184.361 205.596 182.606V173.826H205.6ZM163.938 176.259C165.373 176.259 166.53 177.163 166.53 178.285V184.767C166.53 185.033 166.463 185.296 166.333 185.542C166.203 185.788 166.012 186.011 165.771 186.199C165.53 186.387 165.244 186.537 164.93 186.638C164.615 186.74 164.278 186.793 163.938 186.793H152.874C152.533 186.793 152.196 186.74 151.882 186.638C151.567 186.537 151.281 186.387 151.041 186.199C150.8 186.011 150.609 185.788 150.479 185.542C150.348 185.296 150.281 185.033 150.281 184.767V178.285C150.281 177.163 151.443 176.259 152.874 176.259H163.938ZM161.345 180.311H155.471V182.741H161.345V180.311ZM208.193 96.0176C186.745 96.0176 169.3 108.684 169.3 124.25C169.3 131.902 173.451 139.067 180.99 144.427C181.772 144.979 182.046 145.842 181.684 146.618L177.02 156.645L191.378 150.525C191.707 150.385 192.07 150.302 192.444 150.281C192.818 150.261 193.192 150.304 193.543 150.408C198.225 151.788 203.189 152.491 208.193 152.482C229.64 152.482 247.086 139.816 247.086 124.25C247.086 108.684 229.64 96.0176 208.193 96.0176ZM208.193 100.608C209.624 100.608 210.785 101.519 210.785 102.637V107.093H210.962C213.849 107.097 216.616 107.995 218.657 109.59C220.698 111.186 221.846 113.348 221.849 115.604V117.765C221.849 118.302 221.576 118.817 221.09 119.197C220.603 119.577 219.944 119.791 219.256 119.791C218.569 119.791 217.909 119.577 217.423 119.197C216.937 118.817 216.664 118.302 216.664 117.765V115.604C216.664 113.147 214.102 111.148 210.958 111.148H206.806C202.902 111.148 199.722 113.633 199.722 116.685C199.722 119.739 202.902 122.224 206.81 122.224H209.575C212.829 122.227 215.949 123.238 218.25 125.036C220.551 126.834 221.846 129.272 221.849 131.815C221.849 136.785 216.991 140.882 210.785 141.358V145.863C210.785 146.4 210.512 146.915 210.026 147.295C209.54 147.675 208.88 147.889 208.193 147.889C207.505 147.889 206.846 147.675 206.359 147.295C205.873 146.915 205.6 146.4 205.6 145.863V141.407H205.423C202.537 141.403 199.77 140.505 197.729 138.91C195.688 137.314 194.54 135.152 194.536 132.896C194.536 132.358 194.81 131.843 195.296 131.463C195.782 131.083 196.441 130.87 197.129 130.87C197.817 130.87 198.476 131.083 198.962 131.463C199.448 131.843 199.722 132.358 199.722 132.896C199.722 135.353 202.283 137.351 205.428 137.351H209.575C213.484 137.351 216.664 134.866 216.664 131.815C216.664 128.761 213.484 126.276 209.575 126.276H206.81C203.555 126.274 200.434 125.263 198.132 123.465C195.83 121.667 194.535 119.228 194.532 116.685C194.532 111.715 199.399 107.618 205.6 107.141V102.637C205.6 101.519 206.762 100.611 208.193 100.611V100.608ZM189.002 87.3719H127.809V127.625H145.962C147.393 127.625 148.554 128.533 148.554 129.655V143.84H173.142C167.281 138.242 164.114 131.439 164.114 124.25C164.114 120.412 165.033 116.726 166.72 113.309H139.045C138.358 113.309 137.698 113.096 137.212 112.716C136.726 112.336 136.453 111.82 136.453 111.283C136.453 110.746 136.726 110.23 137.212 109.851C137.698 109.471 138.358 109.257 139.045 109.257H169.167C170.929 106.803 173.111 104.532 175.642 102.503H166.707C166.019 102.503 165.36 102.289 164.874 101.909C164.388 101.529 164.114 101.014 164.114 100.477C164.114 99.9395 164.388 99.4242 164.874 99.0442C165.36 98.6643 166.019 98.4508 166.707 98.4508H180.531C180.867 98.4508 181.185 98.4991 181.476 98.5889C183.817 97.2773 186.335 96.1384 189.002 95.1893V87.3719V87.3719ZM143.369 131.681H131.48L143.369 140.972V131.681ZM158.408 120.063C159.096 120.063 159.755 120.277 160.241 120.657C160.727 121.037 161.001 121.552 161.001 122.089C161.001 122.627 160.727 123.142 160.241 123.522C159.755 123.902 159.096 124.115 158.408 124.115H139.045C138.358 124.115 137.698 123.902 137.212 123.522C136.726 123.142 136.453 122.627 136.453 122.089C136.453 121.552 136.726 121.037 137.212 120.657C137.698 120.277 138.358 120.063 139.045 120.063H158.408ZM155.643 98.4474C156.331 98.4474 156.991 98.661 157.478 99.0413C157.965 99.4215 158.238 99.9373 158.238 100.475C158.238 101.013 157.965 101.529 157.478 101.909C156.991 102.289 156.331 102.503 155.643 102.503H139.045C138.357 102.503 137.697 102.289 137.211 101.909C136.724 101.529 136.451 101.013 136.451 100.475C136.451 99.9373 136.724 99.4215 137.211 99.0413C137.697 98.661 138.357 98.4474 139.045 98.4474H155.643ZM197.129 59.2741H119.687C117.441 59.2759 115.288 59.974 113.7 61.215C112.112 62.4561 111.218 64.1388 111.216 65.8939V72.5136H205.6V65.8939C205.598 64.1388 204.705 62.4561 203.116 61.215C201.528 59.974 199.375 59.2759 197.129 59.2741ZM163.938 63.8644C164.626 63.8644 165.286 64.0781 165.772 64.4583C166.259 64.8386 166.532 65.3544 166.532 65.8921C166.532 66.4299 166.259 66.9457 165.772 67.3259C165.286 67.7062 164.626 67.9198 163.938 67.9198H152.874C152.186 67.9198 151.527 67.7064 151.041 67.3264C150.555 66.9465 150.281 66.4312 150.281 65.8939C150.281 65.3565 150.555 64.8412 151.041 64.4613C151.527 64.0813 152.186 63.8679 152.874 63.8679L163.938 63.8644Z" fill="white"/>
</g>
<defs>
<linearGradient id="paint0_linear" x1="0" y1="0" x2="240.118" y2="307.273" gradientUnits="userSpaceOnUse">
<stop stop-color="#33D35E"/>
<stop offset="1" stop-color="#2AB6D9"/>
</linearGradient>
<clipPath id="clip0">
<rect width="318" height="248.5" fill="white"/>
</clipPath>
</defs>
</svg>
