<svg width="278" height="218" viewBox="0 0 278 218" fill="none" xmlns="http://www.w3.org/2000/svg">
<rect width="278" height="218" fill="#226B00"/>
<path d="M39.992 104.976V118.416L44.168 118.848V120H30.872V118.848L35.048 118.416V89.568L30.872 88.992V87.936H54.152L54.2 94.752H52.952L51.32 89.664L39.992 89.52V103.248H49.976L51.464 99.696H52.424V108.624H51.416L49.976 104.976H39.992ZM81.737 108.288C81.737 111.84 80.665 114.768 78.521 117.072C76.377 119.376 73.449 120.528 69.737 120.528C66.057 120.528 63.145 119.376 61.001 117.072C58.857 114.768 57.785 111.84 57.785 108.288C57.785 104.736 58.857 101.808 61.001 99.504C63.145 97.2 66.057 96.048 69.737 96.048C73.449 96.048 76.377 97.2 78.521 99.504C80.665 101.808 81.737 104.736 81.737 108.288ZM63.017 108.288C63.017 115.68 65.257 119.376 69.737 119.376C74.249 119.376 76.505 115.68 76.505 108.288C76.505 104.704 75.993 101.968 74.969 100.08C73.945 98.192 72.217 97.248 69.785 97.248C67.353 97.248 65.609 98.192 64.553 100.08C63.529 101.968 63.017 104.704 63.017 108.288ZM110.003 108.288C110.003 111.84 108.931 114.768 106.787 117.072C104.643 119.376 101.715 120.528 98.0026 120.528C94.3226 120.528 91.4106 119.376 89.2666 117.072C87.1226 114.768 86.0506 111.84 86.0506 108.288C86.0506 104.736 87.1226 101.808 89.2666 99.504C91.4106 97.2 94.3226 96.048 98.0026 96.048C101.715 96.048 104.643 97.2 106.787 99.504C108.931 101.808 110.003 104.736 110.003 108.288ZM91.2826 108.288C91.2826 115.68 93.5226 119.376 98.0026 119.376C102.515 119.376 104.771 115.68 104.771 108.288C104.771 104.704 104.259 101.968 103.235 100.08C102.211 98.192 100.483 97.248 98.0506 97.248C95.6186 97.248 93.8746 98.192 92.8186 100.08C91.7946 101.968 91.2826 104.704 91.2826 108.288ZM132.556 112.656V99.456C131.02 98.272 129.116 97.68 126.844 97.68C123.996 97.68 122.044 98.848 120.988 101.184C120.124 103.168 119.692 105.872 119.692 109.296C119.692 115.92 121.484 119.232 125.068 119.232C127.084 119.232 128.828 118.464 130.3 116.928C131.804 115.392 132.556 113.968 132.556 112.656ZM124.156 120.72C121.404 120.72 119.084 119.744 117.196 117.792C115.308 115.808 114.364 112.864 114.364 108.96C114.364 105.024 115.5 101.92 117.772 99.648C120.076 97.376 123.132 96.24 126.94 96.24C128.924 96.24 130.796 96.704 132.556 97.632V85.536L128.332 85.344L128.284 84.24L137.164 83.232V118.896L141.244 119.088L141.292 120.192L132.796 120.768L132.892 116.16H132.604C131.836 117.6 130.668 118.72 129.1 119.52C127.532 120.32 125.884 120.72 124.156 120.72ZM144.186 94.992V87.936L170.826 87.84V89.328L150.09 117.552L167.802 117.648L169.434 112.368H170.682V119.376L143.658 119.472V118.128L164.586 89.76L147.066 89.664L145.434 94.992H144.186ZM186.013 120.528C182.717 120.528 180.061 119.408 178.045 117.168C176.029 114.928 175.021 111.968 175.021 108.288C175.021 104.608 176.077 101.648 178.189 99.408C180.333 97.168 183.021 96.048 186.253 96.048C189.485 96.048 191.901 96.784 193.501 98.256C195.101 99.696 195.901 101.712 195.901 104.304C195.901 105.072 195.837 105.84 195.709 106.608H180.205V108.288C180.205 111.872 180.717 114.592 181.741 116.448C182.765 118.272 184.445 119.184 186.781 119.184C190.077 119.184 192.621 117.744 194.413 114.864C195.117 115.088 195.469 115.424 195.469 115.872C195.469 116.672 194.733 117.6 193.261 118.656C192.557 119.168 191.565 119.616 190.285 120C189.005 120.352 187.581 120.528 186.013 120.528ZM191.341 103.296C191.341 101.824 191.037 100.56 190.429 99.504C189.597 98.096 188.253 97.392 186.397 97.392C182.941 97.392 180.925 99.888 180.349 104.88H191.245C191.309 104.336 191.341 103.808 191.341 103.296ZM214.926 96C215.758 96 216.414 96.208 216.894 96.624C217.374 97.008 217.614 97.552 217.614 98.256C217.614 99.472 217.15 100.272 216.222 100.656C215.71 100.24 214.782 100.032 213.438 100.032C212.094 100.032 210.798 100.48 209.55 101.376C208.334 102.24 207.726 103.232 207.726 104.352V118.608L212.046 118.848V120H199.854V118.848L203.022 118.656V98.16L199.23 97.968V96.864L207.726 96.336L207.438 102.24H207.63C208.174 100.512 209.166 99.04 210.606 97.824C212.078 96.608 213.518 96 214.926 96ZM243.878 108.288C243.878 111.84 242.806 114.768 240.662 117.072C238.518 119.376 235.59 120.528 231.878 120.528C228.198 120.528 225.286 119.376 223.142 117.072C220.998 114.768 219.926 111.84 219.926 108.288C219.926 104.736 220.998 101.808 223.142 99.504C225.286 97.2 228.198 96.048 231.878 96.048C235.59 96.048 238.518 97.2 240.662 99.504C242.806 101.808 243.878 104.736 243.878 108.288ZM225.158 108.288C225.158 115.68 227.398 119.376 231.878 119.376C236.39 119.376 238.646 115.68 238.646 108.288C238.646 104.704 238.134 101.968 237.11 100.08C236.086 98.192 234.358 97.248 231.926 97.248C229.494 97.248 227.75 98.192 226.694 100.08C225.67 101.968 225.158 104.704 225.158 108.288Z" fill="white"/>
<line x1="69" y1="92" x2="69" y2="72" stroke="white" stroke-width="2"/>
<line x1="70" y1="73" x2="200" y2="73" stroke="white" stroke-width="2"/>
<line x1="201" y1="72" x2="201" y2="92" stroke="white" stroke-width="2"/>
<line x1="201" y1="125" x2="201" y2="145" stroke="white" stroke-width="2"/>
<line x1="200" y1="144" x2="70" y2="144" stroke="white" stroke-width="2"/>
<line x1="69" y1="145" x2="69" y2="125" stroke="white" stroke-width="2"/>
</svg>
