<svg width="318" height="249" viewBox="0 0 318 249" fill="none" xmlns="http://www.w3.org/2000/svg">
<rect width="318" height="248.5" fill="#E995EB"/>
<path d="M34.8047 134.32H50.9766V138H30.2812V103.875H34.8047V134.32ZM54.2812 125.086C54.2812 122.602 54.7656 120.367 55.7344 118.383C56.7188 116.398 58.0781 114.867 59.8125 113.789C61.5625 112.711 63.5547 112.172 65.7891 112.172C69.2422 112.172 72.0312 113.367 74.1562 115.758C76.2969 118.148 77.3672 121.328 77.3672 125.297V125.602C77.3672 128.07 76.8906 130.289 75.9375 132.258C75 134.211 73.6484 135.734 71.8828 136.828C70.1328 137.922 68.1172 138.469 65.8359 138.469C62.3984 138.469 59.6094 137.273 57.4688 134.883C55.3438 132.492 54.2812 129.328 54.2812 125.391V125.086ZM58.6406 125.602C58.6406 128.414 59.2891 130.672 60.5859 132.375C61.8984 134.078 63.6484 134.93 65.8359 134.93C68.0391 134.93 69.7891 134.07 71.0859 132.352C72.3828 130.617 73.0312 128.195 73.0312 125.086C73.0312 122.305 72.3672 120.055 71.0391 118.336C69.7266 116.602 67.9766 115.734 65.7891 115.734C63.6484 115.734 61.9219 116.586 60.6094 118.289C59.2969 119.992 58.6406 122.43 58.6406 125.602ZM81.6562 125.086C81.6562 122.602 82.1406 120.367 83.1094 118.383C84.0938 116.398 85.4531 114.867 87.1875 113.789C88.9375 112.711 90.9297 112.172 93.1641 112.172C96.6172 112.172 99.4062 113.367 101.531 115.758C103.672 118.148 104.742 121.328 104.742 125.297V125.602C104.742 128.07 104.266 130.289 103.312 132.258C102.375 134.211 101.023 135.734 99.2578 136.828C97.5078 137.922 95.4922 138.469 93.2109 138.469C89.7734 138.469 86.9844 137.273 84.8438 134.883C82.7188 132.492 81.6562 129.328 81.6562 125.391V125.086ZM86.0156 125.602C86.0156 128.414 86.6641 130.672 87.9609 132.375C89.2734 134.078 91.0234 134.93 93.2109 134.93C95.4141 134.93 97.1641 134.07 98.4609 132.352C99.7578 130.617 100.406 128.195 100.406 125.086C100.406 122.305 99.7422 120.055 98.4141 118.336C97.1016 116.602 95.3516 115.734 93.1641 115.734C91.0234 115.734 89.2969 116.586 87.9844 118.289C86.6719 119.992 86.0156 122.43 86.0156 125.602ZM131.602 125.602C131.602 129.461 130.719 132.57 128.953 134.93C127.188 137.289 124.797 138.469 121.781 138.469C118.703 138.469 116.281 137.492 114.516 135.539V147.75H110.18V112.641H114.141L114.352 115.453C116.117 113.266 118.57 112.172 121.711 112.172C124.758 112.172 127.164 113.32 128.93 115.617C130.711 117.914 131.602 121.109 131.602 125.203V125.602ZM127.266 125.109C127.266 122.25 126.656 119.992 125.438 118.336C124.219 116.68 122.547 115.852 120.422 115.852C117.797 115.852 115.828 117.016 114.516 119.344V131.461C115.812 133.773 117.797 134.93 120.469 134.93C122.547 134.93 124.195 134.109 125.414 132.469C126.648 130.812 127.266 128.359 127.266 125.109ZM151.898 131.273C151.898 130.102 151.453 129.195 150.562 128.555C149.688 127.898 148.148 127.336 145.945 126.867C143.758 126.398 142.016 125.836 140.719 125.18C139.438 124.523 138.484 123.742 137.859 122.836C137.25 121.93 136.945 120.852 136.945 119.602C136.945 117.523 137.82 115.766 139.57 114.328C141.336 112.891 143.586 112.172 146.32 112.172C149.195 112.172 151.523 112.914 153.305 114.398C155.102 115.883 156 117.781 156 120.094H151.641C151.641 118.906 151.133 117.883 150.117 117.023C149.117 116.164 147.852 115.734 146.32 115.734C144.742 115.734 143.508 116.078 142.617 116.766C141.727 117.453 141.281 118.352 141.281 119.461C141.281 120.508 141.695 121.297 142.523 121.828C143.352 122.359 144.844 122.867 147 123.352C149.172 123.836 150.93 124.414 152.273 125.086C153.617 125.758 154.609 126.57 155.25 127.523C155.906 128.461 156.234 129.609 156.234 130.969C156.234 133.234 155.328 135.055 153.516 136.43C151.703 137.789 149.352 138.469 146.461 138.469C144.43 138.469 142.633 138.109 141.07 137.391C139.508 136.672 138.281 135.672 137.391 134.391C136.516 133.094 136.078 131.695 136.078 130.195H140.414C140.492 131.648 141.07 132.805 142.148 133.664C143.242 134.508 144.68 134.93 146.461 134.93C148.102 134.93 149.414 134.602 150.398 133.945C151.398 133.273 151.898 132.383 151.898 131.273ZM167.766 106.5V112.641H172.5V115.992H167.766V131.719C167.766 132.734 167.977 133.5 168.398 134.016C168.82 134.516 169.539 134.766 170.555 134.766C171.055 134.766 171.742 134.672 172.617 134.484V138C171.477 138.312 170.367 138.469 169.289 138.469C167.352 138.469 165.891 137.883 164.906 136.711C163.922 135.539 163.43 133.875 163.43 131.719V115.992H158.812V112.641H163.43V106.5H167.766ZM193.242 135.492C191.555 137.477 189.078 138.469 185.812 138.469C183.109 138.469 181.047 137.688 179.625 136.125C178.219 134.547 177.508 132.219 177.492 129.141V112.641H181.828V129.023C181.828 132.867 183.391 134.789 186.516 134.789C189.828 134.789 192.031 133.555 193.125 131.086V112.641H197.461V138H193.336L193.242 135.492ZM203.016 125.109C203.016 121.219 203.938 118.094 205.781 115.734C207.625 113.359 210.039 112.172 213.023 112.172C215.992 112.172 218.344 113.188 220.078 115.219V102H224.414V138H220.43L220.219 135.281C218.484 137.406 216.07 138.469 212.977 138.469C210.039 138.469 207.641 137.266 205.781 134.859C203.938 132.453 203.016 129.312 203.016 125.438V125.109ZM207.352 125.602C207.352 128.477 207.945 130.727 209.133 132.352C210.32 133.977 211.961 134.789 214.055 134.789C216.805 134.789 218.812 133.555 220.078 131.086V119.438C218.781 117.047 216.789 115.852 214.102 115.852C211.977 115.852 210.32 116.672 209.133 118.312C207.945 119.953 207.352 122.383 207.352 125.602ZM235.875 138H231.539V112.641H235.875V138ZM231.188 105.914C231.188 105.211 231.398 104.617 231.82 104.133C232.258 103.648 232.898 103.406 233.742 103.406C234.586 103.406 235.227 103.648 235.664 104.133C236.102 104.617 236.32 105.211 236.32 105.914C236.32 106.617 236.102 107.203 235.664 107.672C235.227 108.141 234.586 108.375 233.742 108.375C232.898 108.375 232.258 108.141 231.82 107.672C231.398 107.203 231.188 106.617 231.188 105.914ZM241.688 125.086C241.688 122.602 242.172 120.367 243.141 118.383C244.125 116.398 245.484 114.867 247.219 113.789C248.969 112.711 250.961 112.172 253.195 112.172C256.648 112.172 259.438 113.367 261.562 115.758C263.703 118.148 264.773 121.328 264.773 125.297V125.602C264.773 128.07 264.297 130.289 263.344 132.258C262.406 134.211 261.055 135.734 259.289 136.828C257.539 137.922 255.523 138.469 253.242 138.469C249.805 138.469 247.016 137.273 244.875 134.883C242.75 132.492 241.688 129.328 241.688 125.391V125.086ZM246.047 125.602C246.047 128.414 246.695 130.672 247.992 132.375C249.305 134.078 251.055 134.93 253.242 134.93C255.445 134.93 257.195 134.07 258.492 132.352C259.789 130.617 260.438 128.195 260.438 125.086C260.438 122.305 259.773 120.055 258.445 118.336C257.133 116.602 255.383 115.734 253.195 115.734C251.055 115.734 249.328 116.586 248.016 118.289C246.703 119.992 246.047 122.43 246.047 125.602ZM284.977 131.273C284.977 130.102 284.531 129.195 283.641 128.555C282.766 127.898 281.227 127.336 279.023 126.867C276.836 126.398 275.094 125.836 273.797 125.18C272.516 124.523 271.562 123.742 270.938 122.836C270.328 121.93 270.023 120.852 270.023 119.602C270.023 117.523 270.898 115.766 272.648 114.328C274.414 112.891 276.664 112.172 279.398 112.172C282.273 112.172 284.602 112.914 286.383 114.398C288.18 115.883 289.078 117.781 289.078 120.094H284.719C284.719 118.906 284.211 117.883 283.195 117.023C282.195 116.164 280.93 115.734 279.398 115.734C277.82 115.734 276.586 116.078 275.695 116.766C274.805 117.453 274.359 118.352 274.359 119.461C274.359 120.508 274.773 121.297 275.602 121.828C276.43 122.359 277.922 122.867 280.078 123.352C282.25 123.836 284.008 124.414 285.352 125.086C286.695 125.758 287.688 126.57 288.328 127.523C288.984 128.461 289.312 129.609 289.312 130.969C289.312 133.234 288.406 135.055 286.594 136.43C284.781 137.789 282.43 138.469 279.539 138.469C277.508 138.469 275.711 138.109 274.148 137.391C272.586 136.672 271.359 135.672 270.469 134.391C269.594 133.094 269.156 131.695 269.156 130.195H273.492C273.57 131.648 274.148 132.805 275.227 133.664C276.32 134.508 277.758 134.93 279.539 134.93C281.18 134.93 282.492 134.602 283.477 133.945C284.477 133.273 284.977 132.383 284.977 131.273Z" fill="white"/>
</svg>
