<svg width="278" height="218" viewBox="0 0 278 218" fill="none" xmlns="http://www.w3.org/2000/svg">
<rect width="278" height="218" fill="#E5F1FF"/>
<path d="M127.929 120.75C129.598 120.75 130.964 118.966 130.964 116.786V96.9643C130.964 94.7839 129.598 93 127.929 93H103.643C101.973 93 100.607 94.7839 100.607 96.9643V116.786C100.607 118.966 101.973 120.75 103.643 120.75H97.5715V124.714H134V120.75H127.929ZM103.643 96.9643H127.929V116.786H103.643V96.9643Z" fill="#377DFF"/>
<path d="M35.517 98.5455H40.0682L44.875 110.273H45.0795L49.8864 98.5455H54.4375V116H50.858V104.639H50.7131L46.196 115.915H43.7585L39.2415 104.597H39.0966V116H35.517V98.5455ZM63.3246 116.256C62.0007 116.256 60.8558 115.974 59.8899 115.412C58.9297 114.844 58.1882 114.054 57.6655 113.043C57.1428 112.026 56.8814 110.847 56.8814 109.506C56.8814 108.153 57.1428 106.972 57.6655 105.96C58.1882 104.943 58.9297 104.153 59.8899 103.591C60.8558 103.023 62.0007 102.739 63.3246 102.739C64.6484 102.739 65.7905 103.023 66.7507 103.591C67.7166 104.153 68.4609 104.943 68.9837 105.96C69.5064 106.972 69.7678 108.153 69.7678 109.506C69.7678 110.847 69.5064 112.026 68.9837 113.043C68.4609 114.054 67.7166 114.844 66.7507 115.412C65.7905 115.974 64.6484 116.256 63.3246 116.256ZM63.3416 113.443C63.9439 113.443 64.4467 113.273 64.8501 112.932C65.2536 112.585 65.5575 112.114 65.7621 111.517C65.9723 110.92 66.0774 110.241 66.0774 109.48C66.0774 108.719 65.9723 108.04 65.7621 107.443C65.5575 106.847 65.2536 106.375 64.8501 106.028C64.4467 105.682 63.9439 105.509 63.3416 105.509C62.7337 105.509 62.2223 105.682 61.8075 106.028C61.3984 106.375 61.0888 106.847 60.8786 107.443C60.674 108.04 60.5717 108.719 60.5717 109.48C60.5717 110.241 60.674 110.92 60.8786 111.517C61.0888 112.114 61.3984 112.585 61.8075 112.932C62.2223 113.273 62.7337 113.443 63.3416 113.443ZM83.9112 102.909L79.3345 116H75.2436L70.6669 102.909H74.5021L77.2209 112.276H77.3572L80.0675 102.909H83.9112ZM91.3132 116.256C89.9666 116.256 88.8075 115.983 87.8359 115.438C86.87 114.886 86.1257 114.108 85.603 113.102C85.0803 112.091 84.8189 110.895 84.8189 109.514C84.8189 108.168 85.0803 106.986 85.603 105.969C86.1257 104.952 86.8615 104.159 87.8104 103.591C88.7649 103.023 89.8842 102.739 91.1683 102.739C92.032 102.739 92.8359 102.878 93.5803 103.156C94.3303 103.429 94.9837 103.841 95.5405 104.392C96.103 104.943 96.5405 105.636 96.853 106.472C97.1655 107.301 97.3217 108.273 97.3217 109.386V110.384H86.2678V108.134H93.9041C93.9041 107.611 93.7905 107.148 93.5632 106.744C93.3359 106.341 93.0206 106.026 92.6172 105.798C92.2195 105.565 91.7564 105.449 91.228 105.449C90.6768 105.449 90.1882 105.577 89.7621 105.832C89.3416 106.082 89.0121 106.42 88.7734 106.847C88.5348 107.267 88.4126 107.736 88.407 108.253V110.392C88.407 111.04 88.5263 111.599 88.7649 112.071C89.0092 112.543 89.353 112.906 89.7962 113.162C90.2393 113.418 90.7649 113.545 91.3729 113.545C91.7763 113.545 92.1456 113.489 92.4808 113.375C92.8161 113.261 93.103 113.091 93.3416 112.864C93.5803 112.636 93.7621 112.358 93.8871 112.028L97.245 112.25C97.0746 113.057 96.7251 113.761 96.1967 114.364C95.674 114.96 94.9979 115.426 94.1683 115.761C93.3445 116.091 92.3928 116.256 91.3132 116.256Z" fill="#377DFF"/>
<path d="M144.986 103.565C144.918 102.878 144.625 102.344 144.108 101.963C143.591 101.582 142.889 101.392 142.003 101.392C141.401 101.392 140.892 101.477 140.477 101.648C140.063 101.812 139.744 102.043 139.523 102.338C139.307 102.634 139.199 102.969 139.199 103.344C139.188 103.656 139.253 103.929 139.395 104.162C139.543 104.395 139.744 104.597 140 104.767C140.256 104.932 140.551 105.077 140.886 105.202C141.222 105.321 141.58 105.423 141.96 105.509L143.528 105.884C144.29 106.054 144.989 106.281 145.625 106.565C146.261 106.849 146.813 107.199 147.278 107.614C147.744 108.028 148.105 108.517 148.361 109.08C148.622 109.642 148.756 110.287 148.761 111.014C148.756 112.082 148.483 113.009 147.943 113.793C147.409 114.571 146.636 115.176 145.625 115.608C144.619 116.034 143.406 116.247 141.986 116.247C140.577 116.247 139.349 116.031 138.304 115.599C137.264 115.168 136.452 114.528 135.866 113.682C135.287 112.83 134.983 111.776 134.955 110.52H138.526C138.565 111.105 138.733 111.594 139.028 111.986C139.33 112.372 139.73 112.665 140.23 112.864C140.736 113.057 141.307 113.153 141.943 113.153C142.568 113.153 143.111 113.062 143.571 112.881C144.037 112.699 144.398 112.446 144.653 112.122C144.909 111.798 145.037 111.426 145.037 111.006C145.037 110.614 144.92 110.284 144.688 110.017C144.46 109.75 144.125 109.523 143.682 109.335C143.244 109.148 142.707 108.977 142.071 108.824L140.17 108.347C138.699 107.989 137.537 107.429 136.685 106.668C135.832 105.906 135.409 104.881 135.415 103.591C135.409 102.534 135.69 101.611 136.259 100.821C136.832 100.031 137.619 99.4148 138.619 98.9716C139.619 98.5284 140.756 98.3068 142.028 98.3068C143.324 98.3068 144.455 98.5284 145.42 98.9716C146.392 99.4148 147.148 100.031 147.688 100.821C148.227 101.611 148.506 102.526 148.523 103.565H144.986ZM157.09 116.256C155.766 116.256 154.621 115.974 153.656 115.412C152.695 114.844 151.954 114.054 151.431 113.043C150.908 112.026 150.647 110.847 150.647 109.506C150.647 108.153 150.908 106.972 151.431 105.96C151.954 104.943 152.695 104.153 153.656 103.591C154.621 103.023 155.766 102.739 157.09 102.739C158.414 102.739 159.556 103.023 160.516 103.591C161.482 104.153 162.227 104.943 162.749 105.96C163.272 106.972 163.533 108.153 163.533 109.506C163.533 110.847 163.272 112.026 162.749 113.043C162.227 114.054 161.482 114.844 160.516 115.412C159.556 115.974 158.414 116.256 157.09 116.256ZM157.107 113.443C157.71 113.443 158.212 113.273 158.616 112.932C159.019 112.585 159.323 112.114 159.528 111.517C159.738 110.92 159.843 110.241 159.843 109.48C159.843 108.719 159.738 108.04 159.528 107.443C159.323 106.847 159.019 106.375 158.616 106.028C158.212 105.682 157.71 105.509 157.107 105.509C156.499 105.509 155.988 105.682 155.573 106.028C155.164 106.375 154.854 106.847 154.644 107.443C154.44 108.04 154.337 108.719 154.337 109.48C154.337 110.241 154.44 110.92 154.644 111.517C154.854 112.114 155.164 112.585 155.573 112.932C155.988 113.273 156.499 113.443 157.107 113.443ZM172.934 102.909V105.636H164.854V102.909H172.934ZM166.704 116V101.963C166.704 101.014 166.888 100.227 167.258 99.6023C167.633 98.9773 168.144 98.5085 168.792 98.196C169.44 97.8835 170.175 97.7273 170.999 97.7273C171.556 97.7273 172.065 97.7699 172.525 97.8551C172.991 97.9403 173.337 98.017 173.565 98.0852L172.917 100.812C172.775 100.767 172.599 100.724 172.388 100.685C172.184 100.645 171.974 100.625 171.758 100.625C171.224 100.625 170.852 100.75 170.641 101C170.431 101.244 170.326 101.588 170.326 102.031V116H166.704ZM182.115 102.909V105.636H174.232V102.909H182.115ZM176.021 99.7727H179.652V111.977C179.652 112.312 179.703 112.574 179.805 112.761C179.908 112.943 180.05 113.071 180.232 113.145C180.419 113.219 180.635 113.256 180.879 113.256C181.05 113.256 181.22 113.241 181.391 113.213C181.561 113.179 181.692 113.153 181.783 113.136L182.354 115.838C182.172 115.895 181.916 115.96 181.587 116.034C181.257 116.114 180.857 116.162 180.385 116.179C179.51 116.213 178.743 116.097 178.084 115.83C177.43 115.562 176.922 115.148 176.558 114.585C176.195 114.023 176.016 113.312 176.021 112.455V99.7727ZM187.062 116L183.5 102.909H187.173L189.202 111.705H189.321L191.435 102.909H195.04L197.188 111.653H197.298L199.293 102.909H202.957L199.403 116H195.56L193.31 107.767H193.148L190.898 116H187.062ZM208.627 116.247C207.792 116.247 207.048 116.102 206.394 115.812C205.741 115.517 205.224 115.082 204.843 114.509C204.468 113.929 204.281 113.207 204.281 112.344C204.281 111.616 204.414 111.006 204.681 110.511C204.948 110.017 205.312 109.619 205.772 109.318C206.232 109.017 206.755 108.79 207.34 108.636C207.931 108.483 208.55 108.375 209.198 108.312C209.96 108.233 210.573 108.159 211.039 108.091C211.505 108.017 211.843 107.909 212.053 107.767C212.263 107.625 212.369 107.415 212.369 107.136V107.085C212.369 106.545 212.198 106.128 211.857 105.832C211.522 105.537 211.045 105.389 210.425 105.389C209.772 105.389 209.252 105.534 208.866 105.824C208.479 106.108 208.224 106.466 208.099 106.898L204.741 106.625C204.911 105.83 205.246 105.142 205.746 104.562C206.246 103.977 206.891 103.528 207.681 103.216C208.477 102.898 209.397 102.739 210.442 102.739C211.17 102.739 211.866 102.824 212.531 102.994C213.201 103.165 213.795 103.429 214.312 103.787C214.835 104.145 215.246 104.605 215.548 105.168C215.849 105.724 215.999 106.392 215.999 107.17V116H212.556V114.185H212.454C212.244 114.594 211.962 114.955 211.61 115.267C211.258 115.574 210.835 115.815 210.34 115.991C209.846 116.162 209.275 116.247 208.627 116.247ZM209.667 113.741C210.201 113.741 210.673 113.636 211.082 113.426C211.491 113.21 211.812 112.92 212.045 112.557C212.278 112.193 212.394 111.781 212.394 111.321V109.932C212.281 110.006 212.124 110.074 211.925 110.136C211.732 110.193 211.513 110.247 211.269 110.298C211.025 110.344 210.781 110.386 210.536 110.426C210.292 110.46 210.07 110.491 209.871 110.52C209.445 110.582 209.073 110.682 208.755 110.818C208.437 110.955 208.19 111.139 208.013 111.372C207.837 111.599 207.749 111.884 207.749 112.224C207.749 112.719 207.928 113.097 208.286 113.358C208.65 113.614 209.11 113.741 209.667 113.741ZM218.816 116V102.909H222.336V105.193H222.472C222.711 104.381 223.112 103.767 223.674 103.352C224.237 102.932 224.884 102.722 225.617 102.722C225.799 102.722 225.995 102.733 226.205 102.756C226.415 102.778 226.6 102.81 226.759 102.849V106.071C226.589 106.02 226.353 105.974 226.052 105.935C225.751 105.895 225.475 105.875 225.225 105.875C224.691 105.875 224.214 105.991 223.793 106.224C223.379 106.452 223.049 106.77 222.805 107.179C222.566 107.588 222.447 108.06 222.447 108.594V116H218.816ZM233.993 116.256C232.646 116.256 231.487 115.983 230.516 115.438C229.55 114.886 228.805 114.108 228.283 113.102C227.76 112.091 227.499 110.895 227.499 109.514C227.499 108.168 227.76 106.986 228.283 105.969C228.805 104.952 229.541 104.159 230.49 103.591C231.445 103.023 232.564 102.739 233.848 102.739C234.712 102.739 235.516 102.878 236.26 103.156C237.01 103.429 237.663 103.841 238.22 104.392C238.783 104.943 239.22 105.636 239.533 106.472C239.845 107.301 240.001 108.273 240.001 109.386V110.384H228.947V108.134H236.584C236.584 107.611 236.47 107.148 236.243 106.744C236.016 106.341 235.7 106.026 235.297 105.798C234.899 105.565 234.436 105.449 233.908 105.449C233.357 105.449 232.868 105.577 232.442 105.832C232.021 106.082 231.692 106.42 231.453 106.847C231.214 107.267 231.092 107.736 231.087 108.253V110.392C231.087 111.04 231.206 111.599 231.445 112.071C231.689 112.543 232.033 112.906 232.476 113.162C232.919 113.418 233.445 113.545 234.053 113.545C234.456 113.545 234.825 113.489 235.161 113.375C235.496 113.261 235.783 113.091 236.021 112.864C236.26 112.636 236.442 112.358 236.567 112.028L239.925 112.25C239.754 113.057 239.405 113.761 238.876 114.364C238.354 114.96 237.678 115.426 236.848 115.761C236.024 116.091 235.072 116.256 233.993 116.256Z" fill="#377DFF"/>
</svg>
