<svg width="318" height="249" viewBox="0 0 318 249" fill="none" xmlns="http://www.w3.org/2000/svg">
<rect width="318" height="248.5" fill="#0D6EFD"/>
<path d="M93.5034 147.24C92.8954 147.24 92.4154 147.064 92.0634 146.712C91.7114 146.328 91.5354 145.832 91.5354 145.224V115.08C91.5354 114.504 91.7114 114.04 92.0634 113.688C92.4474 113.336 92.9434 113.16 93.5514 113.16H104.927C108.479 113.16 111.231 114.024 113.183 115.752C115.167 117.48 116.159 119.928 116.159 123.096C116.159 126.264 115.167 128.728 113.183 130.488C111.199 132.248 108.447 133.128 104.927 133.128H95.4714V145.224C95.4714 145.832 95.2954 146.328 94.9434 146.712C94.5914 147.064 94.1114 147.24 93.5034 147.24ZM104.543 129.864C109.695 129.864 112.271 127.608 112.271 123.096C112.271 118.648 109.695 116.424 104.543 116.424H95.4714V129.864H104.543ZM130.843 147.336C128.635 147.336 126.683 146.84 124.987 145.848C123.323 144.856 122.027 143.448 121.099 141.624C120.203 139.768 119.755 137.624 119.755 135.192C119.755 132.76 120.203 130.632 121.099 128.808C122.027 126.952 123.323 125.528 124.987 124.536C126.683 123.544 128.635 123.048 130.843 123.048C133.051 123.048 135.003 123.544 136.699 124.536C138.395 125.528 139.691 126.952 140.587 128.808C141.515 130.632 141.979 132.76 141.979 135.192C141.979 137.624 141.515 139.768 140.587 141.624C139.691 143.448 138.395 144.856 136.699 145.848C135.003 146.84 133.051 147.336 130.843 147.336ZM130.843 144.12C133.147 144.12 134.907 143.368 136.123 141.864C137.371 140.328 137.995 138.104 137.995 135.192C137.995 132.344 137.371 130.152 136.123 128.616C134.875 127.048 133.115 126.264 130.843 126.264C128.571 126.264 126.811 127.048 125.563 128.616C124.315 130.152 123.691 132.344 123.691 135.192C123.691 138.072 124.299 140.28 125.515 141.816C126.763 143.352 128.539 144.12 130.843 144.12ZM155.644 147.336C154.172 147.336 152.764 147.16 151.42 146.808C150.108 146.456 148.94 145.96 147.916 145.32C147.34 144.936 146.924 144.584 146.668 144.264C146.444 143.912 146.332 143.496 146.332 143.016C146.332 142.6 146.444 142.264 146.668 142.008C146.924 141.72 147.244 141.576 147.628 141.576C148.012 141.576 148.572 141.816 149.308 142.296C150.268 142.872 151.212 143.336 152.14 143.688C153.1 144.008 154.284 144.168 155.692 144.168C157.42 144.168 158.764 143.864 159.724 143.256C160.684 142.648 161.164 141.768 161.164 140.616C161.164 139.912 160.988 139.352 160.636 138.936C160.284 138.488 159.676 138.104 158.812 137.784C157.948 137.432 156.684 137.08 155.02 136.728C152.204 136.12 150.188 135.304 148.972 134.28C147.756 133.256 147.148 131.864 147.148 130.104C147.148 128.728 147.532 127.512 148.3 126.456C149.068 125.4 150.124 124.568 151.468 123.96C152.844 123.352 154.396 123.048 156.124 123.048C157.372 123.048 158.572 123.224 159.724 123.576C160.908 123.896 161.948 124.36 162.844 124.968C163.932 125.736 164.476 126.536 164.476 127.368C164.476 127.784 164.348 128.136 164.092 128.424C163.836 128.712 163.532 128.856 163.18 128.856C162.796 128.856 162.22 128.584 161.452 128.04C160.556 127.464 159.708 127.016 158.908 126.696C158.108 126.376 157.116 126.216 155.932 126.216C154.428 126.216 153.212 126.552 152.284 127.224C151.388 127.896 150.94 128.792 150.94 129.912C150.94 130.616 151.1 131.192 151.42 131.64C151.772 132.056 152.332 132.44 153.1 132.792C153.9 133.112 155.036 133.432 156.508 133.752C158.684 134.232 160.364 134.76 161.548 135.336C162.764 135.912 163.628 136.616 164.14 137.448C164.652 138.28 164.908 139.336 164.908 140.616C164.908 142.632 164.06 144.264 162.364 145.512C160.668 146.728 158.428 147.336 155.644 147.336ZM181.4 144.168C182.52 144.264 183.08 144.776 183.08 145.704C183.08 146.248 182.872 146.664 182.456 146.952C182.072 147.208 181.48 147.304 180.68 147.24L179.384 147.144C176.824 146.952 174.936 146.184 173.72 144.84C172.504 143.496 171.896 141.464 171.896 138.744V126.696H168.68C168.136 126.696 167.704 126.568 167.384 126.312C167.096 126.024 166.952 125.656 166.952 125.208C166.952 124.728 167.096 124.344 167.384 124.056C167.704 123.768 168.136 123.624 168.68 123.624H171.896V118.2C171.896 117.592 172.072 117.128 172.424 116.808C172.776 116.456 173.256 116.28 173.864 116.28C174.44 116.28 174.904 116.456 175.256 116.808C175.608 117.128 175.784 117.592 175.784 118.2V123.624H181.112C181.624 123.624 182.024 123.768 182.312 124.056C182.632 124.344 182.792 124.728 182.792 125.208C182.792 125.656 182.632 126.024 182.312 126.312C182.024 126.568 181.624 126.696 181.112 126.696H175.784V138.936C175.784 140.696 176.136 141.976 176.84 142.776C177.576 143.544 178.664 143.976 180.104 144.072L181.4 144.168ZM187.552 135.816C186.976 135.816 186.528 135.672 186.208 135.384C185.92 135.096 185.776 134.712 185.776 134.232C185.776 133.752 185.92 133.368 186.208 133.08C186.528 132.76 186.976 132.6 187.552 132.6H198.112C198.72 132.6 199.168 132.76 199.456 133.08C199.776 133.368 199.936 133.752 199.936 134.232C199.936 134.712 199.776 135.096 199.456 135.384C199.168 135.672 198.72 135.816 198.112 135.816H187.552ZM209.191 147.24C208.583 147.24 208.103 147.064 207.751 146.712C207.399 146.328 207.223 145.832 207.223 145.224V114.936C207.223 114.328 207.399 113.848 207.751 113.496C208.103 113.112 208.583 112.92 209.191 112.92C209.799 112.92 210.279 113.112 210.631 113.496C210.983 113.848 211.159 114.328 211.159 114.936V145.224C211.159 145.832 210.983 146.328 210.631 146.712C210.279 147.064 209.799 147.24 209.191 147.24ZM229.728 144.168C230.848 144.264 231.408 144.776 231.408 145.704C231.408 146.248 231.2 146.664 230.784 146.952C230.4 147.208 229.808 147.304 229.008 147.24L227.712 147.144C225.152 146.952 223.264 146.184 222.048 144.84C220.832 143.496 220.224 141.464 220.224 138.744V126.696H217.008C216.464 126.696 216.032 126.568 215.712 126.312C215.424 126.024 215.28 125.656 215.28 125.208C215.28 124.728 215.424 124.344 215.712 124.056C216.032 123.768 216.464 123.624 217.008 123.624H220.224V118.2C220.224 117.592 220.4 117.128 220.752 116.808C221.104 116.456 221.584 116.28 222.192 116.28C222.768 116.28 223.232 116.456 223.584 116.808C223.936 117.128 224.112 117.592 224.112 118.2V123.624H229.44C229.952 123.624 230.352 123.768 230.64 124.056C230.96 124.344 231.12 124.728 231.12 125.208C231.12 125.656 230.96 126.024 230.64 126.312C230.352 126.568 229.952 126.696 229.44 126.696H224.112V138.936C224.112 140.696 224.464 141.976 225.168 142.776C225.904 143.544 226.992 143.976 228.432 144.072L229.728 144.168Z" fill="white"/>
</svg>
