<svg width="278" height="218" viewBox="0 0 278 218" fill="none" xmlns="http://www.w3.org/2000/svg">
<rect width="278" height="218" fill="#226B00"/>
<path d="M40.4766 111.195H32.4609V125H27.9375V90.875H39.2344C43.0781 90.875 46.0312 91.75 48.0938 93.5C50.1719 95.25 51.2109 97.7969 51.2109 101.141C51.2109 103.266 50.6328 105.117 49.4766 106.695C48.3359 108.273 46.7422 109.453 44.6953 110.234L52.7109 124.719V125H47.8828L40.4766 111.195ZM32.4609 107.516H39.375C41.6094 107.516 43.3828 106.938 44.6953 105.781C46.0234 104.625 46.6875 103.078 46.6875 101.141C46.6875 99.0312 46.0547 97.4141 44.7891 96.2891C43.5391 95.1641 41.7266 94.5938 39.3516 94.5781H32.4609V107.516ZM67.3828 125.469C63.9453 125.469 61.1484 124.344 58.9922 122.094C56.8359 119.828 55.7578 116.805 55.7578 113.023V112.227C55.7578 109.711 56.2344 107.469 57.1875 105.5C58.1562 103.516 59.5 101.969 61.2188 100.859C62.9531 99.7344 64.8281 99.1719 66.8438 99.1719C70.1406 99.1719 72.7031 100.258 74.5312 102.43C76.3594 104.602 77.2734 107.711 77.2734 111.758V113.562H60.0938C60.1562 116.062 60.8828 118.086 62.2734 119.633C63.6797 121.164 65.4609 121.93 67.6172 121.93C69.1484 121.93 70.4453 121.617 71.5078 120.992C72.5703 120.367 73.5 119.539 74.2969 118.508L76.9453 120.57C74.8203 123.836 71.6328 125.469 67.3828 125.469ZM66.8438 102.734C65.0938 102.734 63.625 103.375 62.4375 104.656C61.25 105.922 60.5156 107.703 60.2344 110H72.9375V109.672C72.8125 107.469 72.2188 105.766 71.1562 104.562C70.0938 103.344 68.6562 102.734 66.8438 102.734ZM101.812 109.93H87.4922V125H82.9922V90.875H104.133V94.5781H87.4922V106.25H101.812V109.93ZM107.18 112.086C107.18 109.602 107.664 107.367 108.633 105.383C109.617 103.398 110.977 101.867 112.711 100.789C114.461 99.7109 116.453 99.1719 118.688 99.1719C122.141 99.1719 124.93 100.367 127.055 102.758C129.195 105.148 130.266 108.328 130.266 112.297V112.602C130.266 115.07 129.789 117.289 128.836 119.258C127.898 121.211 126.547 122.734 124.781 123.828C123.031 124.922 121.016 125.469 118.734 125.469C115.297 125.469 112.508 124.273 110.367 121.883C108.242 119.492 107.18 116.328 107.18 112.391V112.086ZM111.539 112.602C111.539 115.414 112.187 117.672 113.484 119.375C114.797 121.078 116.547 121.93 118.734 121.93C120.937 121.93 122.687 121.07 123.984 119.352C125.281 117.617 125.93 115.195 125.93 112.086C125.93 109.305 125.266 107.055 123.938 105.336C122.625 103.602 120.875 102.734 118.688 102.734C116.547 102.734 114.82 103.586 113.508 105.289C112.195 106.992 111.539 109.43 111.539 112.602ZM147.961 103.531C147.305 103.422 146.594 103.367 145.828 103.367C142.984 103.367 141.055 104.578 140.039 107V125H135.703V99.6406H139.922L139.992 102.57C141.414 100.305 143.43 99.1719 146.039 99.1719C146.883 99.1719 147.523 99.2812 147.961 99.5V103.531ZM162.023 125.469C158.586 125.469 155.789 124.344 153.633 122.094C151.477 119.828 150.398 116.805 150.398 113.023V112.227C150.398 109.711 150.875 107.469 151.828 105.5C152.797 103.516 154.141 101.969 155.859 100.859C157.594 99.7344 159.469 99.1719 161.484 99.1719C164.781 99.1719 167.344 100.258 169.172 102.43C171 104.602 171.914 107.711 171.914 111.758V113.562H154.734C154.797 116.062 155.523 118.086 156.914 119.633C158.32 121.164 160.102 121.93 162.258 121.93C163.789 121.93 165.086 121.617 166.148 120.992C167.211 120.367 168.141 119.539 168.938 118.508L171.586 120.57C169.461 123.836 166.273 125.469 162.023 125.469ZM161.484 102.734C159.734 102.734 158.266 103.375 157.078 104.656C155.891 105.922 155.156 107.703 154.875 110H167.578V109.672C167.453 107.469 166.859 105.766 165.797 104.562C164.734 103.344 163.297 102.734 161.484 102.734ZM191.719 118.273C191.719 117.102 191.273 116.195 190.383 115.555C189.508 114.898 187.969 114.336 185.766 113.867C183.578 113.398 181.836 112.836 180.539 112.18C179.258 111.523 178.305 110.742 177.68 109.836C177.07 108.93 176.766 107.852 176.766 106.602C176.766 104.523 177.641 102.766 179.391 101.328C181.156 99.8906 183.406 99.1719 186.141 99.1719C189.016 99.1719 191.344 99.9141 193.125 101.398C194.922 102.883 195.82 104.781 195.82 107.094H191.461C191.461 105.906 190.953 104.883 189.938 104.023C188.938 103.164 187.672 102.734 186.141 102.734C184.562 102.734 183.328 103.078 182.438 103.766C181.547 104.453 181.102 105.352 181.102 106.461C181.102 107.508 181.516 108.297 182.344 108.828C183.172 109.359 184.664 109.867 186.82 110.352C188.992 110.836 190.75 111.414 192.094 112.086C193.438 112.758 194.43 113.57 195.07 114.523C195.727 115.461 196.055 116.609 196.055 117.969C196.055 120.234 195.148 122.055 193.336 123.43C191.523 124.789 189.172 125.469 186.281 125.469C184.25 125.469 182.453 125.109 180.891 124.391C179.328 123.672 178.102 122.672 177.211 121.391C176.336 120.094 175.898 118.695 175.898 117.195H180.234C180.312 118.648 180.891 119.805 181.969 120.664C183.062 121.508 184.5 121.93 186.281 121.93C187.922 121.93 189.234 121.602 190.219 120.945C191.219 120.273 191.719 119.383 191.719 118.273ZM207.586 93.5V99.6406H212.32V102.992H207.586V118.719C207.586 119.734 207.797 120.5 208.219 121.016C208.641 121.516 209.359 121.766 210.375 121.766C210.875 121.766 211.562 121.672 212.438 121.484V125C211.297 125.312 210.188 125.469 209.109 125.469C207.172 125.469 205.711 124.883 204.727 123.711C203.742 122.539 203.25 120.875 203.25 118.719V102.992H198.633V99.6406H203.25V93.5H207.586Z" fill="white"/>
<path d="M252.541 119.308L246.091 112.062H248.564C249.292 112.062 249.935 111.662 250.242 111.017C250.549 110.373 250.448 109.634 249.977 109.091L243.669 101.813H246.002C246.736 101.813 247.398 101.384 247.686 100.723C247.97 100.072 247.836 99.3143 247.344 98.7946L238.441 89.3874C237.955 88.8709 237.046 88.8709 236.559 89.3874L227.656 98.7946C227.163 99.3143 227.03 100.072 227.313 100.723C227.601 101.384 228.264 101.813 228.998 101.813H231.331L225.022 109.092C224.553 109.635 224.452 110.373 224.758 111.017C225.065 111.662 225.708 112.062 226.436 112.062H228.909L222.459 119.308C221.975 119.852 221.865 120.597 222.172 121.251C222.474 121.896 223.14 122.312 223.868 122.312H234.917V124.27L232.471 128.146C232.042 128.998 232.667 130 233.627 130H241.373C242.333 130 242.958 128.998 242.529 128.146L240.083 124.27V122.312H251.132C251.86 122.312 252.526 121.896 252.828 121.251C253.135 120.597 253.025 119.852 252.541 119.308Z" fill="#70C174"/>
</svg>
