<svg width="318" height="249" viewBox="0 0 318 249" fill="none" xmlns="http://www.w3.org/2000/svg">
<rect width="318" height="248.5" fill="#3DBEFF"/>
<path d="M64.0674 147.384C60.4514 147.384 57.5874 146.568 55.4754 144.936C53.3954 143.304 52.3554 141.128 52.3554 138.408V136.92C52.3554 136.6 52.5154 136.44 52.8354 136.44H55.1874C55.5074 136.44 55.6674 136.6 55.6674 136.92V138.216C55.6674 140.072 56.4354 141.576 57.9714 142.728C59.5074 143.848 61.6354 144.408 64.3554 144.408C66.8194 144.408 68.6914 143.896 69.9714 142.872C71.2514 141.816 71.8914 140.424 71.8914 138.696C71.8914 137.576 71.5874 136.616 70.9794 135.816C70.4034 135.016 69.4914 134.264 68.2434 133.56C67.0274 132.856 65.2994 132.04 63.0594 131.112C60.6594 130.152 58.7874 129.32 57.4434 128.616C56.1314 127.88 55.0594 126.952 54.2274 125.832C53.4274 124.68 53.0274 123.24 53.0274 121.512C53.0274 118.824 53.9554 116.744 55.8114 115.272C57.6994 113.768 60.2754 113.016 63.5394 113.016C67.0914 113.016 69.8914 113.848 71.9394 115.512C73.9874 117.176 75.0114 119.384 75.0114 122.136V123.192C75.0114 123.512 74.8514 123.672 74.5314 123.672H72.1314C71.8114 123.672 71.6514 123.512 71.6514 123.192V122.328C71.6514 120.472 70.9154 118.952 69.4434 117.768C68.0034 116.584 65.9874 115.992 63.3954 115.992C61.1234 115.992 59.3794 116.456 58.1634 117.384C56.9474 118.312 56.3394 119.656 56.3394 121.416C56.3394 122.568 56.6274 123.528 57.2034 124.296C57.8114 125.032 58.6594 125.688 59.7474 126.264C60.8674 126.808 62.5794 127.528 64.8834 128.424C67.2194 129.384 69.0914 130.28 70.4994 131.112C71.9394 131.944 73.0914 132.968 73.9554 134.184C74.8514 135.368 75.2994 136.824 75.2994 138.552C75.2994 141.24 74.3074 143.384 72.3234 144.984C70.3394 146.584 67.5874 147.384 64.0674 147.384ZM96.4186 123.192C96.4186 122.872 96.5786 122.712 96.8986 122.712H99.3466C99.6666 122.712 99.8266 122.872 99.8266 123.192V146.52C99.8266 146.84 99.6666 147 99.3466 147H96.8986C96.5786 147 96.4186 146.84 96.4186 146.52V144.456C96.4186 144.392 96.3866 144.344 96.3226 144.312C96.2586 144.28 96.2106 144.296 96.1786 144.36C94.8346 146.344 92.7066 147.336 89.7946 147.336C88.2586 147.336 86.8346 147.032 85.5226 146.424C84.2426 145.784 83.2186 144.872 82.4506 143.688C81.7146 142.504 81.3466 141.08 81.3466 139.416V123.192C81.3466 122.872 81.5066 122.712 81.8266 122.712H84.2746C84.5946 122.712 84.7546 122.872 84.7546 123.192V138.408C84.7546 140.232 85.2666 141.688 86.2906 142.776C87.3146 143.832 88.7066 144.36 90.4666 144.36C92.2906 144.36 93.7306 143.816 94.7866 142.728C95.8746 141.64 96.4186 140.2 96.4186 138.408V123.192ZM117.545 122.376C120.105 122.376 122.137 123.128 123.641 124.632C125.177 126.136 125.945 128.152 125.945 130.68V146.52C125.945 146.84 125.785 147 125.465 147H123.017C122.697 147 122.537 146.84 122.537 146.52V131.352C122.537 129.592 121.993 128.152 120.905 127.032C119.849 125.912 118.473 125.352 116.777 125.352C115.017 125.352 113.593 125.896 112.505 126.984C111.417 128.072 110.873 129.496 110.873 131.256V146.52C110.873 146.84 110.713 147 110.393 147H107.945C107.625 147 107.465 146.84 107.465 146.52V123.192C107.465 122.872 107.625 122.712 107.945 122.712H110.393C110.713 122.712 110.873 122.872 110.873 123.192V125.256C110.873 125.32 110.889 125.368 110.921 125.4C110.985 125.432 111.033 125.416 111.065 125.352C112.473 123.368 114.633 122.376 117.545 122.376ZM143.42 122.376C145.98 122.376 148.012 123.128 149.516 124.632C151.052 126.136 151.82 128.152 151.82 130.68V146.52C151.82 146.84 151.66 147 151.34 147H148.892C148.572 147 148.412 146.84 148.412 146.52V131.352C148.412 129.592 147.868 128.152 146.78 127.032C145.724 125.912 144.348 125.352 142.652 125.352C140.892 125.352 139.468 125.896 138.38 126.984C137.292 128.072 136.748 129.496 136.748 131.256V146.52C136.748 146.84 136.588 147 136.268 147H133.82C133.5 147 133.34 146.84 133.34 146.52V123.192C133.34 122.872 133.5 122.712 133.82 122.712H136.268C136.588 122.712 136.748 122.872 136.748 123.192V125.256C136.748 125.32 136.764 125.368 136.796 125.4C136.86 125.432 136.908 125.416 136.94 125.352C138.348 123.368 140.508 122.376 143.42 122.376ZM157.689 156.6C157.465 156.6 157.353 156.44 157.353 156.12V154.2C157.353 153.88 157.513 153.72 157.833 153.72H158.025C159.273 153.688 160.233 153.496 160.905 153.144C161.609 152.824 162.201 152.2 162.681 151.272C163.193 150.376 163.737 149 164.313 147.144C164.377 147.016 164.377 146.92 164.313 146.856L156.201 123.24L156.153 123.048C156.153 122.824 156.297 122.712 156.585 122.712H159.129C159.417 122.712 159.609 122.84 159.705 123.096L165.945 142.488C165.977 142.552 166.025 142.584 166.089 142.584C166.153 142.584 166.201 142.552 166.233 142.488L172.377 123.096C172.473 122.84 172.665 122.712 172.953 122.712H175.449C175.801 122.712 175.929 122.888 175.833 123.24L166.953 149.112C166.185 151.256 165.465 152.84 164.793 153.864C164.121 154.888 163.273 155.592 162.249 155.976C161.257 156.392 159.849 156.6 158.025 156.6H157.689ZM191.286 147.384C187.67 147.384 184.806 146.568 182.694 144.936C180.614 143.304 179.574 141.128 179.574 138.408V136.92C179.574 136.6 179.734 136.44 180.054 136.44H182.406C182.726 136.44 182.886 136.6 182.886 136.92V138.216C182.886 140.072 183.654 141.576 185.19 142.728C186.726 143.848 188.854 144.408 191.574 144.408C194.038 144.408 195.91 143.896 197.19 142.872C198.47 141.816 199.11 140.424 199.11 138.696C199.11 137.576 198.806 136.616 198.198 135.816C197.622 135.016 196.71 134.264 195.462 133.56C194.246 132.856 192.518 132.04 190.278 131.112C187.878 130.152 186.006 129.32 184.662 128.616C183.35 127.88 182.278 126.952 181.446 125.832C180.646 124.68 180.246 123.24 180.246 121.512C180.246 118.824 181.174 116.744 183.03 115.272C184.918 113.768 187.494 113.016 190.758 113.016C194.31 113.016 197.11 113.848 199.158 115.512C201.206 117.176 202.23 119.384 202.23 122.136V123.192C202.23 123.512 202.07 123.672 201.75 123.672H199.35C199.03 123.672 198.87 123.512 198.87 123.192V122.328C198.87 120.472 198.134 118.952 196.662 117.768C195.222 116.584 193.206 115.992 190.614 115.992C188.342 115.992 186.598 116.456 185.382 117.384C184.166 118.312 183.558 119.656 183.558 121.416C183.558 122.568 183.846 123.528 184.422 124.296C185.03 125.032 185.878 125.688 186.966 126.264C188.086 126.808 189.798 127.528 192.102 128.424C194.438 129.384 196.31 130.28 197.718 131.112C199.158 131.944 200.31 132.968 201.174 134.184C202.07 135.368 202.518 136.824 202.518 138.552C202.518 141.24 201.526 143.384 199.542 144.984C197.558 146.584 194.806 147.384 191.286 147.384ZM211.253 118.296C210.485 118.296 209.845 118.04 209.333 117.528C208.821 117.016 208.565 116.376 208.565 115.608C208.565 114.808 208.821 114.168 209.333 113.688C209.845 113.176 210.485 112.92 211.253 112.92C212.021 112.92 212.661 113.176 213.173 113.688C213.685 114.168 213.941 114.808 213.941 115.608C213.941 116.376 213.685 117.016 213.173 117.528C212.661 118.04 212.021 118.296 211.253 118.296ZM209.909 146.952C209.589 146.952 209.429 146.792 209.429 146.472V123.144C209.429 122.824 209.589 122.664 209.909 122.664H212.357C212.677 122.664 212.837 122.824 212.837 123.144V146.472C212.837 146.792 212.677 146.952 212.357 146.952H209.909ZM236.256 113.88C236.256 113.56 236.416 113.4 236.736 113.4H239.184C239.504 113.4 239.664 113.56 239.664 113.88V146.52C239.664 146.84 239.504 147 239.184 147H236.736C236.416 147 236.256 146.84 236.256 146.52V144.504C236.256 144.44 236.224 144.408 236.16 144.408C236.128 144.376 236.08 144.392 236.016 144.456C235.312 145.384 234.432 146.104 233.376 146.616C232.352 147.128 231.2 147.384 229.92 147.384C227.68 147.384 225.792 146.808 224.256 145.656C222.752 144.504 221.712 142.936 221.136 140.952C220.688 139.512 220.464 137.48 220.464 134.856C220.464 132.2 220.656 130.216 221.04 128.904C221.616 126.856 222.672 125.256 224.208 124.104C225.744 122.92 227.648 122.328 229.92 122.328C231.168 122.328 232.32 122.584 233.376 123.096C234.432 123.576 235.312 124.28 236.016 125.208C236.08 125.272 236.128 125.304 236.16 125.304C236.224 125.272 236.256 125.224 236.256 125.16V113.88ZM235.392 140.712C235.68 140.072 235.888 139.32 236.016 138.456C236.144 137.592 236.208 136.392 236.208 134.856C236.208 133.32 236.144 132.12 236.016 131.256C235.888 130.36 235.664 129.576 235.344 128.904C234.96 127.816 234.32 126.952 233.424 126.312C232.56 125.64 231.52 125.304 230.304 125.304C229.024 125.304 227.92 125.624 226.992 126.264C226.064 126.904 225.392 127.752 224.976 128.808C224.592 129.512 224.304 130.312 224.112 131.208C223.952 132.072 223.872 133.288 223.872 134.856C223.872 136.36 223.936 137.544 224.064 138.408C224.192 139.24 224.416 139.992 224.736 140.664C225.12 141.816 225.792 142.728 226.752 143.4C227.744 144.072 228.912 144.408 230.256 144.408C231.536 144.408 232.608 144.072 233.472 143.4C234.336 142.728 234.976 141.832 235.392 140.712ZM266.011 130.776C266.139 131.672 266.203 132.792 266.203 134.136V135.672C266.203 135.992 266.043 136.152 265.723 136.152H250.219C250.091 136.152 250.027 136.216 250.027 136.344C250.091 138.104 250.187 139.24 250.315 139.752C250.667 141.192 251.419 142.328 252.571 143.16C253.723 143.992 255.195 144.408 256.987 144.408C258.331 144.408 259.515 144.104 260.539 143.496C261.563 142.888 262.363 142.024 262.939 140.904C263.131 140.616 263.355 140.552 263.611 140.712L265.483 141.816C265.739 141.976 265.803 142.2 265.675 142.488C264.875 144.024 263.675 145.24 262.075 146.136C260.475 147 258.635 147.432 256.555 147.432C254.283 147.4 252.379 146.856 250.843 145.8C249.307 144.744 248.203 143.272 247.531 141.384C246.955 139.848 246.667 137.64 246.667 134.76C246.667 133.416 246.683 132.328 246.715 131.496C246.779 130.632 246.907 129.864 247.099 129.192C247.643 127.112 248.731 125.448 250.363 124.2C252.027 122.952 254.027 122.328 256.363 122.328C259.275 122.328 261.515 123.064 263.083 124.536C264.651 126.008 265.627 128.088 266.011 130.776ZM256.363 125.304C254.795 125.304 253.483 125.72 252.427 126.552C251.403 127.352 250.731 128.44 250.411 129.816C250.219 130.488 250.091 131.576 250.027 133.08C250.027 133.208 250.091 133.272 250.219 133.272H262.651C262.779 133.272 262.843 133.208 262.843 133.08C262.779 131.64 262.683 130.616 262.555 130.008C262.203 128.568 261.483 127.432 260.395 126.6C259.339 125.736 257.995 125.304 256.363 125.304Z" fill="white"/>
</svg>
